<svg width="820" height="308" viewBox="0 0 820 308" fill="none" xmlns="http://www.w3.org/2000/svg">
<path d="M820 0H0V265L28.9502 251.462C99.8623 218.302 180.448 212.197 255.546 234.297L435.935 287.382C481.907 300.91 530.542 302.67 577.372 292.5L634.784 280.032C680.38 270.13 727.586 270.286 773.115 280.491L820 291V0Z" fill="url(#paint0_linear)"/>
<path d="M279.784 52.6C280.216 52.6 280.576 52.744 280.864 53.032C281.152 53.32 281.296 53.68 281.296 54.112V101.488C281.248 101.92 281.08 102.28 280.792 102.568C280.504 102.856 280.168 103 279.784 103C279.304 103 278.92 102.856 278.632 102.568C278.392 102.28 278.272 101.92 278.272 101.488V54.112C278.272 53.68 278.416 53.32 278.704 53.032C278.992 52.744 279.352 52.6 279.784 52.6ZM314.2 52.6C314.632 52.6 314.992 52.744 315.28 53.032C315.568 53.32 315.712 53.68 315.712 54.112V101.488C315.664 101.92 315.496 102.28 315.208 102.568C314.92 102.856 314.584 103 314.2 103C313.72 103 313.336 102.856 313.048 102.568C312.808 102.28 312.688 101.92 312.688 101.488V54.112C312.688 53.68 312.832 53.32 313.12 53.032C313.408 52.744 313.768 52.6 314.2 52.6ZM279.424 75.64H314.344L314.2 78.52H278.992L279.424 75.64Z" fill="white"/>
<path d="M347.301 103.72C343.701 103.72 340.509 102.952 337.725 101.416C334.989 99.88 332.829 97.72 331.245 94.936C329.661 92.104 328.869 88.792 328.869 85C328.869 80.968 329.637 77.536 331.173 74.704C332.757 71.872 334.773 69.712 337.221 68.224C339.717 66.688 342.357 65.92 345.141 65.92C347.157 65.92 349.125 66.256 351.045 66.928C352.965 67.552 354.669 68.56 356.157 69.952C357.693 71.296 358.917 73 359.829 75.064C360.789 77.08 361.317 79.504 361.413 82.336C361.413 82.72 361.269 83.08 360.981 83.416C360.693 83.704 360.357 83.848 359.973 83.848H330.597L330.165 81.112H359.181L358.461 81.76V80.464C358.221 77.92 357.405 75.784 356.013 74.056C354.669 72.328 353.037 71.032 351.117 70.168C349.197 69.256 347.205 68.8 345.141 68.8C343.701 68.8 342.189 69.136 340.605 69.808C339.021 70.432 337.557 71.416 336.213 72.76C334.869 74.056 333.765 75.712 332.901 77.728C332.085 79.744 331.677 82.096 331.677 84.784C331.677 87.712 332.253 90.4 333.405 92.848C334.605 95.296 336.357 97.264 338.661 98.752C341.013 100.24 343.893 100.984 347.301 100.984C348.933 100.984 350.469 100.72 351.909 100.192C353.349 99.616 354.645 98.872 355.797 97.96C356.949 97.048 357.885 96.064 358.605 95.008C358.989 94.576 359.397 94.36 359.829 94.36C360.165 94.36 360.453 94.504 360.693 94.792C360.933 95.032 361.053 95.32 361.053 95.656C361.053 95.992 360.957 96.28 360.765 96.52C359.277 98.44 357.357 100.12 355.005 101.56C352.701 103 350.133 103.72 347.301 103.72Z" fill="white"/>
<path d="M400.074 65.92C400.506 65.92 400.842 66.064 401.082 66.352C401.37 66.64 401.514 66.976 401.514 67.36V99.472C401.514 103.168 400.77 106.36 399.282 109.048C397.794 111.736 395.778 113.8 393.234 115.24C390.69 116.68 387.786 117.4 384.522 117.4C382.314 117.4 380.322 117.136 378.546 116.608C376.818 116.08 375.402 115.432 374.298 114.664C373.962 114.424 373.698 114.136 373.506 113.8C373.314 113.464 373.314 113.104 373.506 112.72C373.698 112.336 373.962 112.072 374.298 111.928C374.682 111.784 375.042 111.832 375.378 112.072C376.194 112.552 377.418 113.128 379.05 113.8C380.73 114.472 382.602 114.808 384.666 114.808C387.45 114.808 389.874 114.16 391.938 112.864C394.05 111.568 395.682 109.768 396.834 107.464C398.034 105.16 398.634 102.496 398.634 99.472V94.144L398.778 95.944C398.106 97.384 397.074 98.704 395.682 99.904C394.338 101.056 392.802 101.992 391.074 102.712C389.394 103.384 387.642 103.72 385.818 103.72C382.842 103.72 380.394 103.144 378.474 101.992C376.602 100.792 375.21 99.16 374.298 97.096C373.434 95.032 373.002 92.608 373.002 89.824V67.36C373.002 66.976 373.122 66.64 373.362 66.352C373.65 66.064 374.01 65.92 374.442 65.92C374.874 65.92 375.21 66.064 375.45 66.352C375.738 66.64 375.882 66.976 375.882 67.36V89.824C375.882 93.232 376.626 95.944 378.114 97.96C379.65 99.976 382.218 100.984 385.818 100.984C387.978 100.984 390.018 100.456 391.938 99.4C393.906 98.296 395.514 96.88 396.762 95.152C398.01 93.424 398.634 91.648 398.634 89.824V67.36C398.634 66.976 398.754 66.64 398.994 66.352C399.282 66.064 399.642 65.92 400.074 65.92Z" fill="white"/>
<path d="M419.696 102.928C419.696 104.08 419.504 105.136 419.12 106.096C418.736 107.104 418.208 107.992 417.536 108.76C416.912 109.528 416.24 110.104 415.52 110.488C414.848 110.92 414.176 111.136 413.504 111.136C413.168 111.136 412.856 111.04 412.568 110.848C412.328 110.656 412.208 110.368 412.208 109.984C412.208 109.312 412.448 108.928 412.928 108.832C413.456 108.784 414.056 108.592 414.728 108.256C415.4 107.872 415.904 107.32 416.24 106.6C416.624 105.88 416.816 105.16 416.816 104.44C416.816 103.912 416.696 103.48 416.456 103.144C416.264 102.856 415.976 102.712 415.592 102.712C415.256 102.712 414.92 102.784 414.584 102.928C414.248 103.024 413.96 103.168 413.72 103.36C413.528 103.12 413.36 102.856 413.216 102.568C413.12 102.28 413.096 101.992 413.144 101.704C413.192 101.32 413.36 100.96 413.648 100.624C413.984 100.288 414.392 100.024 414.872 99.832C415.352 99.64 415.832 99.544 416.312 99.544C417.272 99.544 418.064 99.856 418.688 100.48C419.36 101.056 419.696 101.872 419.696 102.928Z" fill="white"/>
<path d="M456.67 101.488C456.622 101.92 456.454 102.28 456.166 102.568C455.878 102.856 455.542 103 455.158 103C454.678 103 454.294 102.856 454.006 102.568C453.766 102.28 453.646 101.92 453.646 101.488V54.112C453.646 53.68 453.79 53.32 454.078 53.032C454.366 52.744 454.726 52.6 455.158 52.6C455.59 52.6 455.95 52.744 456.238 53.032C456.526 53.32 456.67 53.68 456.67 54.112V101.488Z" fill="white"/>
<path d="M476.123 55.408C476.123 56.56 475.931 57.64 475.547 58.648C475.163 59.608 474.635 60.472 473.963 61.24C473.339 62.008 472.667 62.608 471.947 63.04C471.227 63.424 470.555 63.616 469.931 63.616C469.595 63.616 469.283 63.52 468.995 63.328C468.755 63.136 468.635 62.848 468.635 62.464C468.635 61.792 468.875 61.432 469.355 61.384C469.883 61.336 470.483 61.12 471.155 60.736C471.827 60.4 472.331 59.872 472.667 59.152C473.051 58.384 473.243 57.64 473.243 56.92C473.243 56.392 473.123 55.984 472.883 55.696C472.691 55.36 472.403 55.192 472.019 55.192C471.683 55.192 471.323 55.264 470.939 55.408C470.603 55.504 470.339 55.648 470.147 55.84C469.907 55.6 469.739 55.336 469.643 55.048C469.547 54.76 469.523 54.472 469.571 54.184C469.619 53.8 469.787 53.44 470.075 53.104C470.411 52.768 470.795 52.504 471.227 52.312C471.707 52.12 472.211 52.024 472.739 52.024C473.699 52.024 474.491 52.336 475.115 52.96C475.787 53.536 476.123 54.352 476.123 55.408Z" fill="white"/>
<path d="M502.259 66.64C504.947 66.64 507.395 67.384 509.603 68.872C511.859 70.312 513.395 72.592 514.211 75.712L513.275 76.36L513.635 74.992C514.259 73.408 515.339 71.992 516.875 70.744C518.459 69.496 520.211 68.512 522.131 67.792C524.099 67.024 525.995 66.64 527.819 66.64C530.699 66.64 533.075 67.264 534.947 68.512C536.819 69.76 538.187 71.44 539.051 73.552C539.963 75.616 540.419 77.968 540.419 80.608V101.56C540.419 101.944 540.275 102.28 539.987 102.568C539.747 102.856 539.411 103 538.979 103C538.547 103 538.187 102.856 537.899 102.568C537.659 102.28 537.539 101.944 537.539 101.56V80.896C537.539 78.784 537.179 76.864 536.459 75.136C535.787 73.36 534.707 71.968 533.219 70.96C531.779 69.904 529.883 69.376 527.531 69.376C525.467 69.376 523.451 69.904 521.483 70.96C519.515 71.968 517.883 73.36 516.587 75.136C515.339 76.864 514.715 78.784 514.715 80.896V101.56C514.715 101.944 514.571 102.28 514.283 102.568C514.043 102.856 513.707 103 513.275 103C512.843 103 512.483 102.856 512.195 102.568C511.955 102.28 511.835 101.944 511.835 101.56V80.536C511.835 78.472 511.499 76.6 510.827 74.92C510.203 73.24 509.195 71.896 507.803 70.888C506.411 69.88 504.563 69.376 502.259 69.376C500.243 69.376 498.275 69.88 496.355 70.888C494.483 71.896 492.923 73.24 491.675 74.92C490.427 76.6 489.803 78.472 489.803 80.536V101.56C489.803 101.944 489.659 102.28 489.371 102.568C489.083 102.856 488.747 103 488.363 103C487.931 103 487.571 102.856 487.283 102.568C487.043 102.28 486.923 101.944 486.923 101.56V68.512C486.923 68.128 487.067 67.792 487.355 67.504C487.643 67.216 487.979 67.072 488.363 67.072C488.795 67.072 489.131 67.216 489.371 67.504C489.659 67.792 489.803 68.128 489.803 68.512V76.36L487.643 80.032C487.643 78.352 488.051 76.72 488.867 75.136C489.683 73.552 490.763 72.136 492.107 70.888C493.499 69.592 495.059 68.56 496.787 67.792C498.563 67.024 500.387 66.64 502.259 66.64Z" fill="white"/>
<path d="M209.225 193C208.793 193 208.433 192.856 208.145 192.568C207.905 192.28 207.785 191.944 207.785 191.56V144.328H210.665V191.56C210.665 191.944 210.521 192.28 210.233 192.568C209.945 192.856 209.609 193 209.225 193ZM191.729 145.336C191.345 145.336 191.009 145.216 190.721 144.976C190.433 144.688 190.289 144.352 190.289 143.968C190.289 143.584 190.433 143.272 190.721 143.032C191.009 142.744 191.345 142.6 191.729 142.6H226.721C227.105 142.6 227.441 142.744 227.729 143.032C228.017 143.272 228.161 143.584 228.161 143.968C228.161 144.4 228.017 144.736 227.729 144.976C227.441 145.216 227.105 145.336 226.721 145.336H191.729Z" fill="white"/>
<path d="M241.748 142.6C241.988 142.6 242.228 142.648 242.468 142.744C242.708 142.84 242.924 143.008 243.116 143.248L263.78 173.992H262.34L283.004 143.248C283.388 142.72 283.844 142.504 284.372 142.6C284.756 142.648 285.068 142.816 285.308 143.104C285.548 143.344 285.668 143.656 285.668 144.04V191.56C285.668 191.944 285.5 192.28 285.164 192.568C284.876 192.856 284.54 193 284.156 193C283.724 193 283.364 192.856 283.076 192.568C282.788 192.28 282.644 191.944 282.644 191.56V147.28H283.436L264.068 176.584C263.972 176.776 263.828 176.92 263.636 177.016C263.492 177.112 263.3 177.16 263.06 177.16C262.82 177.16 262.58 177.112 262.34 177.016C262.148 176.92 262.004 176.776 261.908 176.584L242.108 146.704H243.26V191.56C243.26 191.944 243.116 192.28 242.828 192.568C242.54 192.856 242.204 193 241.82 193C241.388 193 241.028 192.856 240.74 192.568C240.5 192.28 240.38 191.944 240.38 191.56V144.04C240.38 143.704 240.5 143.392 240.74 143.104C240.98 142.768 241.316 142.6 241.748 142.6Z" fill="white"/>
<path d="M338.235 142.6C338.667 142.6 339.003 142.744 339.243 143.032C339.531 143.32 339.675 143.656 339.675 144.04V175.144C339.675 178.552 338.835 181.672 337.155 184.504C335.475 187.288 333.243 189.52 330.459 191.2C327.675 192.88 324.579 193.72 321.171 193.72C317.763 193.72 314.643 192.88 311.811 191.2C309.027 189.52 306.795 187.288 305.115 184.504C303.435 181.672 302.595 178.552 302.595 175.144V144.04C302.595 143.656 302.715 143.32 302.955 143.032C303.243 142.744 303.627 142.6 304.107 142.6C304.539 142.6 304.899 142.744 305.187 143.032C305.475 143.32 305.619 143.656 305.619 144.04V175.144C305.619 178.024 306.315 180.664 307.707 183.064C309.099 185.416 310.971 187.312 313.323 188.752C315.723 190.144 318.339 190.84 321.171 190.84C324.051 190.84 326.667 190.144 329.019 188.752C331.371 187.312 333.243 185.416 334.635 183.064C336.075 180.664 336.795 178.024 336.795 175.144V144.04C336.795 143.656 336.915 143.32 337.155 143.032C337.443 142.744 337.803 142.6 338.235 142.6Z" fill="white"/>
<path d="M371.704 155.92C374.728 155.92 377.176 156.52 379.048 157.72C380.968 158.92 382.36 160.552 383.224 162.616C384.136 164.68 384.592 166.984 384.592 169.528V191.56C384.592 191.944 384.448 192.28 384.16 192.568C383.872 192.856 383.536 193 383.152 193C382.72 193 382.36 192.856 382.072 192.568C381.832 192.28 381.712 191.944 381.712 191.56V169.816C381.712 167.752 381.352 165.88 380.632 164.2C379.96 162.52 378.856 161.176 377.32 160.168C375.832 159.16 373.864 158.656 371.416 158.656C369.304 158.656 367.24 159.16 365.224 160.168C363.208 161.176 361.528 162.52 360.184 164.2C358.888 165.88 358.24 167.752 358.24 169.816V191.56C358.24 191.944 358.096 192.28 357.808 192.568C357.52 192.856 357.184 193 356.8 193C356.368 193 356.008 192.856 355.72 192.568C355.48 192.28 355.36 191.944 355.36 191.56V158.512C355.36 158.128 355.504 157.792 355.792 157.504C356.08 157.216 356.416 157.072 356.8 157.072C357.232 157.072 357.568 157.216 357.808 157.504C358.096 157.792 358.24 158.128 358.24 158.512V165.568L356.44 169.024C356.44 167.296 356.896 165.64 357.808 164.056C358.72 162.472 359.92 161.08 361.408 159.88C362.896 158.632 364.528 157.672 366.304 157C368.128 156.28 369.928 155.92 371.704 155.92Z" fill="white"/>
<path d="M401.963 191.56C401.963 191.944 401.819 192.28 401.531 192.568C401.243 192.856 400.907 193 400.523 193C400.091 193 399.731 192.856 399.443 192.568C399.203 192.28 399.083 191.944 399.083 191.56V157.36C399.083 156.976 399.227 156.64 399.515 156.352C399.803 156.064 400.139 155.92 400.523 155.92C400.955 155.92 401.291 156.064 401.531 156.352C401.819 156.64 401.963 156.976 401.963 157.36V191.56ZM400.523 151.024C399.755 151.024 399.131 150.808 398.651 150.376C398.219 149.944 398.003 149.392 398.003 148.72V148.144C398.003 147.472 398.243 146.92 398.723 146.488C399.203 146.056 399.827 145.84 400.595 145.84C401.267 145.84 401.819 146.056 402.251 146.488C402.731 146.92 402.971 147.472 402.971 148.144V148.72C402.971 149.392 402.731 149.944 402.251 150.376C401.819 150.808 401.243 151.024 400.523 151.024Z" fill="white"/>
<path d="M414.711 155.776C414.951 155.776 415.191 155.872 415.431 156.064C415.719 156.208 415.911 156.424 416.007 156.712L429.327 188.608L428.607 189.112L442.143 156.712C442.383 156.088 442.887 155.776 443.655 155.776C443.895 155.776 444.183 155.872 444.519 156.064C444.855 156.256 445.023 156.544 445.023 156.928C445.023 157.168 444.999 157.36 444.951 157.504C444.903 157.6 444.855 157.696 444.807 157.792L430.479 192.064C430.239 192.688 429.783 193 429.111 193C428.823 193 428.535 192.928 428.247 192.784C428.007 192.592 427.839 192.352 427.743 192.064L413.343 157.864C413.295 157.768 413.247 157.672 413.199 157.576C413.199 157.432 413.199 157.312 413.199 157.216C413.199 156.832 413.319 156.496 413.559 156.208C413.799 155.92 414.183 155.776 414.711 155.776Z" fill="white"/>
<path d="M471.785 193.72C468.185 193.72 464.993 192.952 462.209 191.416C459.473 189.88 457.313 187.72 455.729 184.936C454.145 182.104 453.353 178.792 453.353 175C453.353 170.968 454.121 167.536 455.657 164.704C457.241 161.872 459.257 159.712 461.705 158.224C464.201 156.688 466.841 155.92 469.625 155.92C471.641 155.92 473.609 156.256 475.529 156.928C477.449 157.552 479.153 158.56 480.641 159.952C482.177 161.296 483.401 163 484.313 165.064C485.273 167.08 485.801 169.504 485.897 172.336C485.897 172.72 485.753 173.08 485.465 173.416C485.177 173.704 484.841 173.848 484.457 173.848H455.081L454.649 171.112H483.665L482.945 171.76V170.464C482.705 167.92 481.889 165.784 480.497 164.056C479.153 162.328 477.521 161.032 475.601 160.168C473.681 159.256 471.689 158.8 469.625 158.8C468.185 158.8 466.673 159.136 465.089 159.808C463.505 160.432 462.041 161.416 460.697 162.76C459.353 164.056 458.249 165.712 457.385 167.728C456.569 169.744 456.161 172.096 456.161 174.784C456.161 177.712 456.737 180.4 457.889 182.848C459.089 185.296 460.841 187.264 463.145 188.752C465.497 190.24 468.377 190.984 471.785 190.984C473.417 190.984 474.953 190.72 476.393 190.192C477.833 189.616 479.129 188.872 480.281 187.96C481.433 187.048 482.369 186.064 483.089 185.008C483.473 184.576 483.881 184.36 484.313 184.36C484.649 184.36 484.937 184.504 485.177 184.792C485.417 185.032 485.537 185.32 485.537 185.656C485.537 185.992 485.441 186.28 485.249 186.52C483.761 188.44 481.841 190.12 479.489 191.56C477.185 193 474.617 193.72 471.785 193.72Z" fill="white"/>
<path d="M499.278 193C498.846 193 498.486 192.856 498.198 192.568C497.958 192.28 497.838 191.944 497.838 191.56V158.512C497.838 158.128 497.982 157.792 498.27 157.504C498.558 157.216 498.894 157.072 499.278 157.072C499.71 157.072 500.046 157.216 500.286 157.504C500.574 157.792 500.718 158.128 500.718 158.512V170.68L499.494 172.552C499.494 170.68 499.806 168.784 500.43 166.864C501.102 164.944 502.062 163.168 503.31 161.536C504.558 159.856 506.07 158.512 507.846 157.504C509.67 156.448 511.758 155.92 514.11 155.92C514.782 155.92 515.502 156.016 516.27 156.208C517.038 156.4 517.422 156.856 517.422 157.576C517.422 158.008 517.302 158.368 517.062 158.656C516.822 158.944 516.51 159.088 516.126 159.088C515.838 159.088 515.478 158.992 515.046 158.8C514.662 158.56 514.086 158.44 513.318 158.44C511.782 158.44 510.27 158.896 508.782 159.808C507.294 160.72 505.926 161.944 504.678 163.48C503.478 164.968 502.518 166.6 501.798 168.376C501.078 170.152 500.718 171.88 500.718 173.56V191.56C500.718 191.944 500.574 192.28 500.286 192.568C499.998 192.856 499.662 193 499.278 193Z" fill="white"/>
<path d="M524.85 187.24C524.514 186.664 524.346 186.208 524.346 185.872C524.394 185.488 524.586 185.176 524.922 184.936C525.162 184.696 525.474 184.6 525.858 184.648C526.29 184.648 526.65 184.816 526.938 185.152C528.186 186.928 529.77 188.368 531.69 189.472C533.658 190.576 535.962 191.128 538.602 191.128C540.186 191.128 541.698 190.864 543.138 190.336C544.626 189.808 545.826 189.016 546.738 187.96C547.698 186.904 548.178 185.608 548.178 184.072C548.178 182.44 547.722 181.144 546.81 180.184C545.898 179.176 544.722 178.384 543.282 177.808C541.842 177.232 540.33 176.752 538.746 176.368C537.066 175.936 535.458 175.456 533.922 174.928C532.434 174.352 531.114 173.656 529.962 172.84C528.81 171.976 527.898 170.968 527.226 169.816C526.554 168.664 526.218 167.296 526.218 165.712C526.218 163.84 526.722 162.16 527.73 160.672C528.738 159.184 530.154 158.032 531.978 157.216C533.802 156.352 535.914 155.92 538.314 155.92C539.466 155.92 540.69 156.064 541.986 156.352C543.282 156.64 544.578 157.144 545.874 157.864C547.17 158.536 548.37 159.496 549.474 160.744C549.858 161.032 550.026 161.392 549.978 161.824C549.978 162.208 549.81 162.568 549.474 162.904C549.186 163.096 548.874 163.192 548.538 163.192C548.202 163.192 547.914 163.048 547.674 162.76C546.426 161.368 544.962 160.336 543.282 159.664C541.65 158.992 539.898 158.656 538.026 158.656C536.442 158.656 534.954 158.92 533.562 159.448C532.218 159.976 531.114 160.768 530.25 161.824C529.386 162.832 528.954 164.128 528.954 165.712C529.05 167.2 529.554 168.424 530.466 169.384C531.426 170.344 532.674 171.136 534.21 171.76C535.794 172.384 537.57 172.96 539.538 173.488C541.122 173.872 542.586 174.328 543.93 174.856C545.322 175.336 546.522 175.96 547.53 176.728C548.586 177.496 549.402 178.456 549.978 179.608C550.602 180.76 550.914 182.2 550.914 183.928C550.914 185.944 550.362 187.696 549.258 189.184C548.202 190.624 546.714 191.752 544.794 192.568C542.922 193.336 540.762 193.72 538.314 193.72C535.818 193.72 533.418 193.216 531.114 192.208C528.81 191.2 526.722 189.544 524.85 187.24Z" fill="white"/>
<path d="M592.865 157.072C593.297 157.072 593.633 157.216 593.873 157.504C594.161 157.792 594.305 158.128 594.305 158.512V191.56C594.305 191.944 594.161 192.28 593.873 192.568C593.585 192.856 593.249 193 592.865 193C592.433 193 592.073 192.856 591.785 192.568C591.545 192.28 591.425 191.944 591.425 191.56V181.336L592.577 180.4C592.577 181.936 592.193 183.496 591.425 185.08C590.657 186.664 589.601 188.104 588.257 189.4C586.913 190.696 585.329 191.752 583.505 192.568C581.681 193.336 579.713 193.72 577.601 193.72C574.385 193.72 571.505 192.88 568.961 191.2C566.465 189.52 564.497 187.24 563.057 184.36C561.617 181.48 560.897 178.24 560.897 174.64C560.897 170.992 561.617 167.776 563.057 164.992C564.545 162.16 566.537 159.952 569.033 158.368C571.577 156.736 574.433 155.92 577.601 155.92C579.665 155.92 581.609 156.304 583.433 157.072C585.257 157.792 586.841 158.824 588.185 160.168C589.577 161.512 590.657 163.096 591.425 164.92C592.193 166.696 592.577 168.64 592.577 170.752L591.425 168.952V158.512C591.425 158.128 591.545 157.792 591.785 157.504C592.073 157.216 592.433 157.072 592.865 157.072ZM577.745 190.984C580.433 190.984 582.833 190.288 584.945 188.896C587.057 187.456 588.713 185.512 589.913 183.064C591.113 180.568 591.713 177.76 591.713 174.64C591.713 171.664 591.113 168.976 589.913 166.576C588.713 164.128 587.057 162.208 584.945 160.816C582.833 159.376 580.433 158.656 577.745 158.656C575.105 158.656 572.729 159.352 570.617 160.744C568.505 162.088 566.825 163.96 565.577 166.36C564.377 168.76 563.777 171.52 563.777 174.64C563.777 177.76 564.377 180.568 565.577 183.064C566.777 185.512 568.433 187.456 570.545 188.896C572.657 190.288 575.057 190.984 577.745 190.984Z" fill="white"/>
<path d="M611.997 191.56C611.997 191.944 611.853 192.28 611.565 192.568C611.277 192.856 610.941 193 610.557 193C610.125 193 609.765 192.856 609.477 192.568C609.237 192.28 609.117 191.944 609.117 191.56V141.16C609.117 140.776 609.261 140.44 609.549 140.152C609.837 139.864 610.173 139.72 610.557 139.72C610.989 139.72 611.325 139.864 611.565 140.152C611.853 140.44 611.997 140.776 611.997 141.16V191.56Z" fill="white"/>
<path d="M626.528 179.536C625.856 179.536 625.496 179.152 625.448 178.384L625.088 144.832C625.088 144.16 625.16 143.632 625.304 143.248C625.496 142.816 625.904 142.6 626.528 142.6C627.152 142.6 627.536 142.816 627.68 143.248C627.872 143.632 627.968 144.16 627.968 144.832L627.608 178.384C627.56 179.152 627.2 179.536 626.528 179.536ZM626.384 193C625.76 193 625.28 192.784 624.944 192.352C624.608 191.92 624.44 191.392 624.44 190.768V189.112C624.44 188.44 624.608 187.912 624.944 187.528C625.28 187.096 625.76 186.88 626.384 186.88H626.672C627.344 186.88 627.824 187.096 628.112 187.528C628.448 187.912 628.616 188.44 628.616 189.112V190.768C628.616 191.392 628.448 191.92 628.112 192.352C627.824 192.784 627.344 193 626.672 193H626.384Z" fill="white"/>
<defs>
<linearGradient id="paint0_linear" x1="820" y1="113.587" x2="-622.993" y2="100.196" gradientUnits="userSpaceOnUse">
<stop stop-color="#B91D73"/>
<stop offset="1" stop-color="#F953C6"/>
</linearGradient>
</defs>
</svg>
